HIERARCHY
ROOT joint_Root
{
	OFFSET 0.0 0.0 0.0
	CHANNELS 6 Xposition Yposition Zposition Zrotation Xrotation Yrotation 
	JOINT Hips
	{
		OFFSET 4.5925 91.4895 -427.239
		CHANNELS 6 Xposition Yposition Zposition Zrotation Xrotation Yrotation 
		JOINT Spine
		{
			OFFSET 15.7357 0.0 0.0
			CHANNELS 6 Xposition Yposition Zposition Zrotation Xrotation Yrotation 
			JOINT Chest
			{
				OFFSET 8.98455 -0.406207 0.0
				CHANNELS 6 Xposition Yposition Zposition Zrotation Xrotation Yrotation 
				JOINT Neck
				{
					OFFSET 16.3773 0.0 0.0
					CHANNELS 6 Xposition Yposition Zposition Zrotation Xrotation Yrotation 
					JOINT Head
					{
						OFFSET 6.45672 0.0 0.0
						CHANNELS 6 Xposition Yposition Zposition Zrotation Xrotation Yrotation 
						End Site
						{
							OFFSET 0.0 0.0 0.0
						}
					}
				}
				JOINT Shoulder_L
				{
					OFFSET 12.9942 -0.242716 4.98039
					CHANNELS 6 Xposition Yposition Zposition Zrotation Xrotation Yrotation 
					JOINT UpperArm_L
					{
						OFFSET 5.34809 0.0 0.0
						CHANNELS 6 Xposition Yposition Zposition Zrotation Xrotation Yrotation 
						JOINT LowerArm_L
						{
							OFFSET 24.3286 1.87007e-05 0.0
							CHANNELS 6 Xposition Yposition Zposition Zrotation Xrotation Yrotation 
							JOINT Hand_L
							{
								OFFSET 22.2916 0.0 0.0
								CHANNELS 6 Xposition Yposition Zposition Zrotation Xrotation Yrotation 
								End Site
								{
									OFFSET 0.0 0.0 0.0
								}
							}
						}
					}
				}
				JOINT Shoulder_R
				{
					OFFSET 12.9945 -0.242716 -4.98039
					CHANNELS 6 Xposition Yposition Zposition Zrotation Xrotation Yrotation 
					JOINT UpperArm_R
					{
						OFFSET -5.34813 0.0 0.0
						CHANNELS 6 Xposition Yposition Zposition Zrotation Xrotation Yrotation 
						JOINT LowerArm_R
						{
							OFFSET -24.3289 0.000322201 0.0
							CHANNELS 6 Xposition Yposition Zposition Zrotation Xrotation Yrotation 
							JOINT Hand_R
							{
								OFFSET -22.2915 -0.000108084 0.0
								CHANNELS 6 Xposition Yposition Zposition Zrotation Xrotation Yrotation 
								End Site
								{
									OFFSET 0.0 0.0 0.0
								}
							}
						}
					}
				}
			}
		}
		JOINT UpperLeg_L
		{
			OFFSET -2.19248 -6.46944 0.0
			CHANNELS 6 Xposition Yposition Zposition Zrotation Xrotation Yrotation 
			JOINT LowerLeg_L
			{
				OFFSET 39.0811 0.0 -1.23785e-05
				CHANNELS 6 Xposition Yposition Zposition Zrotation Xrotation Yrotation 
				JOINT Foot_L
				{
					OFFSET 40.9854 0.0 -1.26872e-05
					CHANNELS 6 Xposition Yposition Zposition Zrotation Xrotation Yrotation 
					JOINT Toes_L
					{
						OFFSET 11.7543 0.0 0.0
						CHANNELS 6 Xposition Yposition Zposition Zrotation Xrotation Yrotation 
						End Site
						{
							OFFSET 0.0 0.0 0.0
						}
					}
				}
			}
		}
		JOINT UpperLeg_R
		{
			OFFSET -2.19251 6.46944 0.0
			CHANNELS 6 Xposition Yposition Zposition Zrotation Xrotation Yrotation 
			JOINT LowerLeg_R
			{
				OFFSET -39.0811 -0.00228153 -0.0401928
				CHANNELS 6 Xposition Yposition Zposition Zrotation Xrotation Yrotation 
				JOINT Foot_R
				{
					OFFSET -40.9854 0.0 0.0
					CHANNELS 6 Xposition Yposition Zposition Zrotation Xrotation Yrotation 
					JOINT Toes_R
					{
						OFFSET -11.7543 0.0 0.0
						CHANNELS 6 Xposition Yposition Zposition Zrotation Xrotation Yrotation 
						End Site
						{
							OFFSET 0.0 0.0 0.0
						}
					}
				}
			}
		}
	}
}
MOTION
Frames:	5
Frame Time:	0.0333333
0.000000 0.000000 0.000000 0.000000 0.000000 -0.000000 0.717938 90.289500 -0.566545 90.004400 -3.875750 16.523100 15.735700 0.000005 -0.000001 88.774700 82.428200 -89.634400 8.984550 -0.406207 -0.000000 7.372280 -0.319677 -1.696960 16.377300 -0.000001 -0.000001 36.014100 -4.551550 0.792141 6.456720 -0.000001 -0.000000 17.977000 -5.426200 -2.661600 12.994200 -0.242716 4.980390 -87.472000 -6.386990 -68.352500 5.348090 -0.000007 -0.000001 -63.852900 -41.279600 -84.458000 24.328600 0.000019 0.000005 32.063900 7.144470 -78.770300 22.291600 -0.000001 0.000005 17.027000 5.245500 1.551460 12.994500 -0.242716 -4.980390 91.052200 -3.722950 -74.206100 -5.348130 -0.000001 -0.000004 -59.908000 -38.562700 -81.694000 -24.328900 0.000322 -0.000009 6.480640 1.856590 -74.085500 -22.291500 -0.000108 -0.000004 22.473800 5.405340 -3.111870 -2.192480 -6.469440 -0.000000 -173.414000 -15.970800 5.892170 39.081100 -0.000007 -0.000012 -0.185741 0.286503 32.955800 40.985400 -0.000006 -0.000013 1.048780 4.409920 -71.704500 11.754300 -0.000000 0.000003 -0.000198 -0.001837 -16.646900 -2.192510 6.469440 -0.000001 169.403000 19.315100 -172.878000 -39.081100 -0.002282 -0.040193 -0.257819 0.412403 32.340600 -40.985400 0.000008 0.000006 1.546740 12.910300 -71.487500 -11.754300 -0.000006 -0.000006 -0.003425 -0.045316 -18.416200
0.000000 0.000000 0.000000 0.000000 0.000000 -0.000000 0.722652 90.274500 -0.526644 90.038100 -3.810700 16.546800 15.735700 0.000005 -0.000001 88.822700 82.442000 -89.693000 8.984550 -0.406207 -0.000000 7.345150 -0.306235 -1.719110 16.377300 -0.000001 -0.000001 36.022500 -4.514510 0.763815 6.456720 -0.000001 -0.000000 17.935600 -5.363940 -2.672600 12.994200 -0.242716 4.980390 -87.466100 -6.401000 -68.349700 5.348090 -0.000007 -0.000001 -63.894000 -41.318200 -84.432300 24.328600 0.000019 0.000005 32.054300 7.175260 -78.719300 22.291600 -0.000001 0.000005 17.064200 5.244760 1.570650 12.994500 -0.242716 -4.980390 91.061300 -3.745370 -74.166000 -5.348130 -0.000001 -0.000004 -60.057200 -38.498200 -81.776000 -24.328900 0.000322 -0.000009 6.428830 1.862720 -73.912600 -22.291500 -0.000108 -0.000004 22.475900 5.405390 -3.113370 -2.192480 -6.469440 -0.000000 -173.474000 -15.880400 5.901660 39.081100 -0.000007 -0.000012 -0.187104 0.288125 32.999400 40.985400 -0.000006 -0.000013 1.043430 4.379190 -71.745500 11.754300 -0.000000 0.000003 -0.000188 -0.001761 -16.644100 -2.192510 6.469440 -0.000001 169.343000 19.310700 -172.851000 -39.081100 -0.002282 -0.040193 -0.261087 0.416445 32.410200 -40.985400 0.000008 0.000006 1.526640 12.854700 -71.551600 -11.754300 -0.000006 -0.000006 -0.003497 -0.046108 -18.448400
0.000000 0.000000 0.000000 0.000000 0.000000 -0.000000 0.722946 90.272700 -0.499649 90.065600 -3.745780 16.586900 15.735700 0.000005 -0.000001 88.858800 82.453300 -89.735800 8.984550 -0.406207 -0.000000 7.322750 -0.296107 -1.733110 16.377300 -0.000001 -0.000001 36.096300 -4.472780 0.757797 6.456720 -0.000001 -0.000000 17.896900 -5.329270 -2.708970 12.994200 -0.242716 4.980390 -87.450400 -6.446530 -68.366800 5.348090 -0.000007 -0.000001 -63.912800 -41.320600 -84.329600 24.328600 0.000019 0.000005 31.854600 7.184230 -78.619900 22.291600 -0.000001 0.000005 17.026800 5.247600 1.496010 12.994500 -0.242716 -4.980390 91.066100 -3.774110 -74.213500 -5.348130 -0.000001 -0.000004 -60.167700 -38.456900 -81.714200 -24.328900 0.000322 -0.000009 6.359410 1.845420 -73.888000 -22.291500 -0.000108 -0.000004 22.439300 5.402240 -3.010380 -2.192480 -6.469440 -0.000000 -173.490000 -15.867700 5.971950 39.081100 -0.000007 -0.000012 -0.186145 0.286884 32.977900 40.985400 -0.000006 -0.000013 1.056330 4.422470 -71.756400 11.754300 -0.000000 0.000003 -0.000198 -0.001835 -16.646800 -2.192510 6.469440 -0.000001 169.270000 19.363600 -172.770000 -39.081100 -0.002282 -0.040193 -0.259013 0.413123 32.413700 -40.985400 0.000008 0.000006 1.522440 12.851600 -71.580900 -11.754300 -0.000006 -0.000006 -0.003451 -0.045604 -18.427900
0.000000 0.000000 0.000000 0.000000 0.000000 -0.000000 0.717993 90.272300 -0.499491 90.066100 -3.713370 16.552100 15.735700 0.000005 -0.000001 89.002200 82.482200 -89.876300 8.984550 -0.406207 -0.000000 7.265920 -0.257069 -1.730040 16.377300 -0.000001 -0.000001 36.135700 -4.419170 0.740926 6.456720 -0.000001 -0.000000 17.954800 -5.291350 -2.718430 12.994200 -0.242716 4.980390 -87.423500 -6.532450 -68.419300 5.348090 -0.000007 -0.000001 -63.952300 -41.267200 -84.158400 24.328600 0.000019 0.000005 31.660600 7.176670 -78.547500 22.291600 -0.000001 0.000005 17.004700 5.246250 1.531670 12.994500 -0.242716 -4.980390 91.069500 -3.802130 -74.276900 -5.348130 -0.000001 -0.000004 -60.239800 -38.418900 -81.546200 -24.328900 0.000322 -0.000009 6.452250 1.858990 -73.999000 -22.291500 -0.000108 -0.000004 22.459800 5.403020 -3.035830 -2.192480 -6.469440 -0.000000 -173.503000 -15.836600 5.926120 39.081100 -0.000007 -0.000012 -0.189508 0.292005 32.983400 40.985400 -0.000006 -0.000013 1.048350 4.420970 -71.753400 11.754300 -0.000000 0.000003 -0.000198 -0.001838 -16.646900 -2.192510 6.469440 -0.000001 169.279000 19.374800 -172.800000 -39.081100 -0.002282 -0.040193 -0.262034 0.417864 32.414700 -40.985400 0.000008 0.000006 1.507840 12.806600 -71.583100 -11.754300 -0.000006 -0.000006 -0.003291 -0.043854 -18.356700
0.000000 0.000000 0.000000 0.000000 0.000000 -0.000000 0.718192 90.272200 -0.509132 90.088200 -3.663560 16.564000 15.735700 0.000005 -0.000001 89.106000 82.483700 -89.974800 8.984550 -0.406207 -0.000000 7.263520 -0.229890 -1.721100 16.377300 -0.000001 -0.000001 36.219300 -4.379230 0.737720 6.456720 -0.000001 -0.000000 17.971100 -5.278790 -2.786710 12.994200 -0.242716 4.980390 -87.413800 -6.578640 -68.482800 5.348090 -0.000007 -0.000001 -63.928000 -41.168300 -83.932900 24.328600 0.000019 0.000005 31.532000 7.214260 -78.432900 22.291600 -0.000001 0.000005 17.025900 5.247080 1.509690 12.994500 -0.242716 -4.980390 91.077500 -3.843910 -74.328500 -5.348130 -0.000001 -0.000004 -60.241800 -38.341800 -81.384500 -24.328900 0.000322 -0.000009 6.583210 1.883910 -74.104100 -22.291500 -0.000108 -0.000004 22.693000 5.401240 -2.977710 -2.192480 -6.469440 -0.000000 -173.534000 -15.824300 5.923660 39.081100 -0.000007 -0.000012 -0.187104 0.288345 32.979400 40.985400 -0.000006 -0.000013 1.060810 4.441280 -71.740400 11.754300 -0.000000 0.000003 -0.000197 -0.001826 -16.646500 -2.192510 6.469440 -0.000001 169.260000 19.376400 -172.800000 -39.081100 -0.002282 -0.040193 -0.259484 0.413581 32.431500 -40.985400 0.000008 0.000006 1.506230 12.783000 -71.588400 -11.754300 -0.000006 -0.000006 -0.003375 -0.044772 -18.394100
